<svg width="300" height="200" viewBox="0 0 300 200" fill="none" xmlns="http://www.w3.org/2000/svg">
<path d="M105.9 66.3L68.7 44.2C66.5 42.9 64 42.2 61.5 42.2C59 42.2 56.5 42.9 54.3 44.2L17.1 66.3C12.7 68.9 9.89999 73.8 9.89999 79.1V123.3C9.89999 128.6 12.6 133.4 17.1 136.1L54.3 158.2C56.5 159.5 59 160.2 61.5 160.2C64 160.2 66.5 159.5 68.7 158.2L105.9 136.1C110.3 133.5 113.1 128.6 113.1 123.3V79C113.1 73.8 110.4 68.9 105.9 66.3ZM55.6 155.8L18.4 133.7C14.8 131.5 12.5 127.5 12.5 123.2V79C12.5 74.7 14.8 70.6 18.4 68.5L55.6 46.4C57.4 45.3 59.4 44.8 61.5 44.8C63.6 44.8 65.6 45.4 67.4 46.4L104.6 68.5C107.7 70.3 109.7 73.5 110.3 77C109.1 74.4 106.3 73.6 103 75.5L67.9 97.3C63.5 99.9 60.3 102.7 60.3 108V151.4C60.3 154.6 61.6 156.6 63.5 157.2C62.9 157.3 62.2 157.4 61.5 157.4C59.5 157.5 57.4 156.9 55.6 155.8Z" fill="#2A3238"/>
<path d="M96.2 127.5L86.9 133C86.7 133.1 86.5 133.3 86.5 133.6V136C86.5 136.3 86.7 136.4 86.9 136.3L96.3 130.6C96.5 130.5 96.6 130.2 96.6 129.9V127.8C96.6 127.5 96.4 127.4 96.2 127.5Z" fill="#F7DF1E"/>
<path d="M76.4 107.1C76.7 106.9 76.9 107.1 77 107.5V110.7C78.3 110.2 79.5 110 80.6 110.3C80.8 110.4 80.9 110.7 80.8 111L80.1 113.8C80 114 79.9 114.2 79.8 114.4C79.7 114.5 79.7 114.5 79.6 114.5C79.5 114.5 79.4 114.6 79.3 114.5C78.8 114.4 77.7 114.1 75.9 115.1C74 116.1 73.3 117.7 73.4 118.9C73.4 120.4 74.2 120.8 76.7 120.8C80.1 120.9 81.6 122.4 81.7 125.8C81.7 129.2 79.9 132.9 77.1 135.1L77.2 138.3C77.2 138.7 77 139.1 76.7 139.3L74.8 140.4C74.5 140.6 74.3 140.4 74.2 140V136.9C72.6 137.6 71 137.7 69.9 137.3C69.7 137.2 69.6 136.9 69.7 136.6L70.4 133.7C70.5 133.5 70.6 133.2 70.7 133.1C70.8 133 70.8 133 70.9 133C71 132.9 71.1 132.9 71.2 133C72.3 133.4 73.8 133.2 75.1 132.5C76.9 131.6 78 129.8 78 128C78 126.4 77.1 125.7 75 125.7C72.3 125.7 69.8 125.2 69.7 121.2C69.7 117.9 71.4 114.5 74.1 112.4V109.2C74.1 108.8 74.3 108.4 74.6 108.2L76.4 107.1Z" fill="#F7DF1E"/>
<path d="M159.469 90.6406L159.727 93.6172C161.477 91.3203 163.891 90.1719 166.969 90.1719C169.609 90.1719 171.578 90.9609 172.875 92.5391C174.188 94.1172 174.867 96.4922 174.914 99.6641V116H166.992V99.9922C166.992 98.7109 166.734 97.7734 166.219 97.1797C165.703 96.5703 164.766 96.2656 163.406 96.2656C161.859 96.2656 160.711 96.875 159.961 98.0938V116H152.062V90.6406H159.469Z" fill="#F7DF1E"/>
<path d="M197.273 106.93C197.273 105.727 196.844 104.789 195.984 104.117C195.141 103.445 193.648 102.75 191.508 102.031C189.367 101.312 187.617 100.617 186.258 99.9453C181.836 97.7734 179.625 94.7891 179.625 90.9922C179.625 89.1016 180.172 87.4375 181.266 86C182.375 84.5469 183.938 83.4219 185.953 82.625C187.969 81.8125 190.234 81.4062 192.75 81.4062C195.203 81.4062 197.398 81.8438 199.336 82.7188C201.289 83.5938 202.805 84.8438 203.883 86.4688C204.961 88.0781 205.5 89.9219 205.5 92H197.297C197.297 90.6094 196.867 89.5312 196.008 88.7656C195.164 88 194.016 87.6172 192.562 87.6172C191.094 87.6172 189.93 87.9453 189.07 88.6016C188.227 89.2422 187.805 90.0625 187.805 91.0625C187.805 91.9375 188.273 92.7344 189.211 93.4531C190.148 94.1562 191.797 94.8906 194.156 95.6562C196.516 96.4062 198.453 97.2188 199.969 98.0938C203.656 100.219 205.5 103.148 205.5 106.883C205.5 109.867 204.375 112.211 202.125 113.914C199.875 115.617 196.789 116.469 192.867 116.469C190.102 116.469 187.594 115.977 185.344 114.992C183.109 113.992 181.422 112.633 180.281 110.914C179.156 109.18 178.594 107.188 178.594 104.938H186.844C186.844 106.766 187.312 108.117 188.25 108.992C189.203 109.852 190.742 110.281 192.867 110.281C194.227 110.281 195.297 109.992 196.078 109.414C196.875 108.82 197.273 107.992 197.273 106.93ZM238.242 116H230.062V101.75H217.945V116H209.719V81.875H217.945V95.4219H230.062V81.875H238.242V116Z" fill="#2A3238"/>
</svg>
